<?xml version="1.0" encoding="iso-8859-1"?>
<!-- Generator: Adobe Illustrator 18.0.0, SVG Export Plug-In . SVG Version: 6.00 Build 0)  -->
<!DOCTYPE svg PUBLIC "-//W3C//DTD SVG 1.1//EN" "http://www.w3.org/Graphics/SVG/1.1/DTD/svg11.dtd">
<svg version="1.1" id="Capa_1" xmlns="http://www.w3.org/2000/svg" xmlns:xlink="http://www.w3.org/1999/xlink" x="0px" y="0px"
	 viewBox="0 0 512 512" style="enable-background:new 0 0 512 512;" xml:space="preserve">
<g>
	<path style="fill:#FFFFFF;" d="M256,32C132.297,32,32,132.297,32,256s100.297,224,224,224s224-100.297,224-224S379.703,32,256,32z"
		/>
	<path style="fill:#F69348;" d="M255.994,255.994C212.259,212.236,141.355,212.253,97.608,256l-58.007,58.007
		c3.083,11.527,7.054,22.689,11.85,33.404l68.783-68.783c31.24-31.24,81.858-31.212,113.114,0
		c31.223,31.268,31.235,81.869,0.001,113.115l0.022,0.022l-68.784,68.784c10.715,4.796,21.878,8.768,33.404,11.85L256,414.392
		C299.73,370.661,299.741,299.708,255.994,255.994z"/>
	<path style="fill:#F69348;" d="M301.26,210.751c43.735,43.758,114.64,43.741,158.386-0.006l12.752-12.751
		c-3.083-11.527-7.054-22.689-11.85-33.405l-23.529,23.529c-31.24,31.24-81.859,31.211-113.114,0
		c-31.224-31.268-31.235-81.869-0.001-113.115l-0.022-0.022l23.529-23.529c-10.715-4.796-21.878-8.768-33.404-11.85l-12.752,12.752
		C257.524,96.084,257.514,167.037,301.26,210.751z"/>
	<g>
		<g>
			<path style="fill:#003953;" d="M256,0C114.617,0,0,114.617,0,256s114.617,256,256,256s256-114.617,256-256S397.383,0,256,0z
				 M256,480C132.297,480,32,379.703,32,256S132.297,32,256,32s224,100.297,224,224S379.703,480,256,480z"/>
		</g>
	</g>
</g>
<g>
</g>
<g>
</g>
<g>
</g>
<g>
</g>
<g>
</g>
<g>
</g>
<g>
</g>
<g>
</g>
<g>
</g>
<g>
</g>
<g>
</g>
<g>
</g>
<g>
</g>
<g>
</g>
<g>
</g>
</svg>
