<?xml version="1.0" encoding="iso-8859-1"?>
<!-- Generator: Adobe Illustrator 18.0.0, SVG Export Plug-In . SVG Version: 6.00 Build 0)  -->
<!DOCTYPE svg PUBLIC "-//W3C//DTD SVG 1.1//EN" "http://www.w3.org/Graphics/SVG/1.1/DTD/svg11.dtd">
<svg version="1.1" id="Capa_1" xmlns="http://www.w3.org/2000/svg" xmlns:xlink="http://www.w3.org/1999/xlink" x="0px" y="0px"
	 viewBox="0 0 512 512" style="enable-background:new 0 0 512 512;" xml:space="preserve">
<g>
	<g>
		<path style="fill:#FFFFFF;" d="M384.024,199.981c-26.47,0-48.003,21.532-48.003,48.003c0,26.47,21.533,48.003,48.003,48.003
			s48.003-21.533,48.003-48.003C432.027,221.513,410.494,199.981,384.024,199.981z"/>
		<path style="fill:#FFFFFF;" d="M304.019,247.984c0-44.116,35.889-80.005,80.005-80.005c2.996,0,5.946,0.197,8.856,0.519
			l76.927-76.926c13.61-13.614,13.61-35.764-0.004-49.378c-13.61-13.61-35.756-13.602-49.374,0L267.329,195.293
			c-9.891,9.895-17.408,23.376-26.103,38.987c-11.286,20.247-24.076,43.194-45.901,65.02l-36.69,36.69l17.376,17.375l36.69-36.689
			c17.63-17.634,35.822-29.177,51.288-38.143c7.404-4.289,16.813-1.968,21.425,5.137l21.605-14.039
			C305.079,262.741,304.019,255.486,304.019,247.984z"/>
		
			<rect x="41.634" y="397.706" transform="matrix(-0.7071 0.7071 -0.7071 -0.7071 464.0401 627.7778)" style="fill:#6EBF5D;" width="120.744" height="24.572"/>
	</g>
	<path style="fill:#003B54;" d="M492.433,19.564c-26.099-26.087-68.547-26.084-94.631,0.004L244.703,172.667
		c-13.048,13.048-21.978,29.068-31.432,46.034c-10.77,19.322-21.904,39.299-40.573,57.972L28.002,421.369l-0.688-0.688
		c-6.243-6.25-16.384-6.25-22.626,0c-6.25,6.246-6.25,16.38,0,22.626l12.001,12.001l40.003,40.003l12.001,12.001
		c3.121,3.125,7.219,4.688,11.313,4.688c4.094,0,8.192-1.563,11.313-4.688c6.25-6.247,6.25-16.38,0-22.626l-0.688-0.688
		l144.697-144.696c15.024-15.024,31.033-25.154,44.71-33.08c7.645-4.434,10.251-14.223,5.821-21.868
		c-4.434-7.649-14.228-10.247-21.869-5.821c-15.466,8.965-33.658,20.509-51.288,38.143l-36.69,36.689l-17.376-17.375l36.69-36.69
		c21.826-21.826,34.615-44.772,45.901-65.02c8.696-15.61,16.212-29.092,26.103-38.987L420.428,42.194
		c13.618-13.602,35.764-13.61,49.374,0c13.614,13.614,13.614,35.764,0.004,49.378l-76.927,76.926
		c-2.91-0.322-5.86-0.519-8.856-0.519c-44.116,0-80.005,35.889-80.005,80.005s35.889,80.005,80.005,80.005
		s80.005-35.889,80.005-80.005c0-28.548-15.077-53.581-37.639-67.743l66.043-66.043C518.52,88.111,518.524,45.659,492.433,19.564z
		 M153.385,375.991l-85.38,85.377l-17.372-17.372l85.376-85.379L153.385,375.991z M384.024,295.987
		c-26.47,0-48.003-21.533-48.003-48.003s21.533-48.003,48.003-48.003s48.003,21.533,48.003,48.003S410.494,295.987,384.024,295.987z
		"/>
	<path style="fill:#F69348;" d="M425.526,272.061c-0.494-0.046-0.993-0.076-1.5-0.076c-13.235,0-24.002-10.766-24.002-24.001
		c0-13.235,10.766-24.002,24.002-24.002c0.506,0,1.005-0.03,1.5-0.076c-6.769-11.624-18.269-20.168-31.852-22.951
		c-15.419,9.986-25.651,27.329-25.651,47.028s10.232,37.042,25.651,47.028C407.257,292.229,418.757,283.685,425.526,272.061z"/>
</g>
<g>
</g>
<g>
</g>
<g>
</g>
<g>
</g>
<g>
</g>
<g>
</g>
<g>
</g>
<g>
</g>
<g>
</g>
<g>
</g>
<g>
</g>
<g>
</g>
<g>
</g>
<g>
</g>
<g>
</g>
</svg>
